# xmcd CD database file
#
# Track frame offsets:
#	187
#	21870
#	50260
#	82482
#	116522
#	145772
#
# Disc length: 2308 seconds
#
# Revision: 0
# Processed by: cddbd v1.4PL0 Copyright (c) Steve Scherf et al.
# Submitted via: CDex 1.50
#
DISCID=4d090206
DTITLE=Steve Kuhn - The October Suite
DYEAR=1966
DGENRE=Jazz
TTITLE0=One I Could Have Loved
TTITLE1=ST. Tropez Shuttle
TTITLE2=Remember When
TTITLE3=Traffic Patterns
TTITLE4=Childhood Dreams
TTITLE5=Open Highway
EXTD=YEAR: 1966
EXTT0=
EXTT1=
EXTT2=
EXTT3=
EXTT4=
EXTT5=
PLAYORDER=
